<?xml version="1.0" encoding="utf-8"?>
<!-- Generator: Adobe Illustrator 19.0.0, SVG Export Plug-In . SVG Version: 6.00 Build 0)  -->
<svg version="1.0" id="Calque_1" xmlns="http://www.w3.org/2000/svg" xmlns:xlink="http://www.w3.org/1999/xlink" x="0px" y="0px"
	 width="300px" height="300px" viewBox="0 0 300 300" enable-background="new 0 0 300 300" xml:space="preserve">
<g id="LOGO">
	<g>
		<path fill="#561F53" d="M134.7,143.3L121.3,130l-0.1-0.5c0.6-2.9,3.5-5.3,6.6-5.3c3.8,0,6.9,3.2,6.9,6.9L134.7,143.3L134.7,143.3z
			 M104.1,148v-12.4l13.6,13.5c0,0.1-0.1,0.4,0,0.6c-0.7,3-3.5,5.2-6.7,5.2C107.2,154.9,104.1,151.9,104.1,148 M123,152.8L123,152.8
			L104.1,134V131c0-3.7,3.1-6.9,6.9-6.9c2.1,0,4,1.1,5.3,2.4l18.4,18.3v3.2C134.7,154.7,126.9,156.7,123,152.8"/>
		<path fill="#561F53" d="M153,149.2l13.4-13.8v13.5c0,3.7-3.4,6.2-6.8,6.2C156.1,155,153.4,153.1,153,149.2 M148,152.7
			c-6.9,6.5-16.8-2.6-10-9.6l16.4-16.6c2.1-2.5,5.8-3.1,8.6-1.4c2.1,1.1,3.4,3.3,3.4,5.9v2.8L148,152.7z"/>
		<path fill="#561F53" d="M201.2,149.3l13.6-15.9v14.7c0,3.8-3.1,6.8-6.9,6.8C204.7,154.9,201.9,153.7,201.2,149.3 M196.7,152.7
			c-4.9,6-15.3-0.6-9.1-7.2l15.3-18.1c4.5-5.4,12-2.5,12,2.9v1.6L196.7,152.7z M179.5,153c-6.3,6.5-16.6-2.6-9.4-9.4l14-16.4
			c6.5-7.7,17.2,1,11,7.5L179.5,153z"/>
		<path fill="#561F53" d="M228.9,154.8v-30.6h5.6c4.1,0,6.6,3,6.5,6.3c0,2.9-1.5,6.2-6.1,6.2h-2v0.9h2c2,0,3.9-0.6,5.4-2.1
			c1.2,2.5,0.7,6.6-1.2,8.4c-1.1,1.2-2.4,2-4.3,2h-1.9v0.8h1.9c1.9,0,3.8-0.6,5.1-2.3c2.9,3.7,1.4,10.4-5.3,10.4L228.9,154.8
			L228.9,154.8z M223,124.2h4.8v30.6h-4.9c-3.8,0-6.9-3.1-6.9-6.8v-16.9C216.1,127.3,219,124.2,223,124.2"/>
		<path fill="#561F53" d="M119.4,191.5v-33c8.7,0.4,15.5,7.7,15.5,16.5C135,183.8,128.1,191,119.4,191.5 M111.3,158.4h6.9v33.1h-6.8
			c-4.2,0-7.3-3-7.3-7.1v-18.8C104.1,161.7,107.1,158.4,111.3,158.4"/>
		<path fill="#561F53" d="M149.9,191.6v-33.1h6.1c4.4,0,7.1,3.2,7,6.8c0,3.2-1.7,6.7-6.6,6.7h-2.1v0.9h2.2c2.1,0.1,4.2-0.6,5.8-2.3
			c1.3,2.7,0.7,7.1-1.3,9.1c-1.2,1.3-2.6,2.1-4.6,2.1h-2v0.9h2c2,0,4-0.7,5.5-2.4c3.1,4,1.5,11.3-5.7,11.3L149.9,191.6L149.9,191.6z
			 M143.6,158.5h5.2v33.1h-5.3c-4.1,0-7.4-3.3-7.4-7.3V166C136.1,161.8,139.2,158.5,143.6,158.5"/>
		<path fill="#561F53" d="M190.4,171.4c-1.5-0.9-3.3-1.3-5.2-1.5c-0.4,0-0.5,0.5-0.1,0.6c12.4,2.8,11.5,21-3.3,21H180v-33h6.1
			c4.3,0,7.5,3.2,7.5,7.3C193.7,168.3,192.6,170.3,190.4,171.4 M176,158.5h2.8v33h-8.1c-4.4,0-6.7-4.1-6.7-7.4
			c0-2.5,0.9-4.4,2.9-5.9c1.8,1.2,4.2,1.8,6.4,1.8c0.4,0,0.5-0.5,0.1-0.6c-1.3-0.1-2.7-0.6-3.9-1.2
			C160.5,173.5,162.6,158.4,176,158.5"/>
		<path id="XMLID_28_" fill="#561F53" d="M195.1,184.1v-18.1c0-4.1,3.3-7.3,7.4-7.3c4.2,0,7.5,3.2,7.5,7.3v18.1
			c0,4.1-3.3,7.4-7.5,7.4C198.3,191.5,195.1,188.1,195.1,184.1"/>
		<path fill="#561F53" d="M228.5,191.5V179c0-2.8,2.1-4.6,3.8-5.3c0.4-0.1,0.2-0.6-0.1-0.6h-3.7v-14.6h6.1c4.1,0,7.4,3.1,7.4,7.1
			c0,3.7-2.1,6.1-5.1,7.1c-0.5,0.1-0.4,0.5,0,0.6c2.9,0.9,5,3.7,5,7v3.9c0,3.7-3.6,7.3-7.3,7.3H228.5L228.5,191.5z M211.3,174.9
			c0-8.9,7-16.4,16-16.3v32.9C218.4,191.2,211.3,183.9,211.3,174.9"/>
		<path fill="#561F53" d="M276.4,179.1l-14.5-14.4l-0.1-0.5c0.7-3.2,3.7-5.8,7.2-5.8c4.1,0,7.5,3.4,7.5,7.4V179.1z M243.4,184.2
			v-13.4l14.7,14.6c0,0.1-0.1,0.4,0,0.6c-0.7,3.2-3.7,5.6-7.2,5.6C246.7,191.7,243.4,188.4,243.4,184.2 M263.8,189.4L263.8,189.4
			L243.4,169v-3.2c0-4,3.3-7.4,7.4-7.4c2.2,0,4.3,1.2,5.7,2.6l19.9,19.8v3.4C276.4,191.4,268,193.6,263.8,189.4"/>
		<path fill="#561F53" d="M117.2,118.4l5.4-6.3v5.8c0,1.5-1.2,2.7-2.7,2.7C118.6,120.6,117.5,120.2,117.2,118.4 M115.4,119.7
			c-2,2.4-6-0.2-3.6-2.9l6-7.2c1.8-2.1,4.7-1,4.7,1.1v0.6L115.4,119.7z M108.6,119.9c-2.5,2.5-6.6-1-3.7-3.7l5.5-6.5
			c2.6-3,6.8,0.4,4.4,3L108.6,119.9z"/>
		<path fill="#561F53" d="M132.1,114.8l-3-4.2l1.3-1.3c1-1.1,2.8-1,3.8,0c1,1,0.9,2.7-0.1,3.8L132.1,114.8z M131.8,115.1v2.7
			c0,1.5-1.2,2.7-2.7,2.7c-1.5,0-2.7-1.2-2.7-2.7v-2.4l-2.3-2.4c-1-1.1-1-2.8,0-3.8c1-1.1,2.7-1.1,3.7,0L131.8,115.1z"/>
		<path id="XMLID_17_" fill="#561F53" d="M245,149.7v-12.4c0-2.8,2.2-5,5-5c2.9,0,5.1,2.2,5.1,5v12.4c0,2.8-2.2,5.1-5.1,5.1
			C247.2,154.8,245,152.5,245,149.7"/>
		<path fill="#561F53" d="M274.1,141c-1.1-0.6-2.3-0.9-3.6-1c-0.2,0-0.3,0.3-0.1,0.4c8.5,1.9,7.9,14.4-2.2,14.4H267v-22.6h4.2
			c2.9,0,5.2,2.2,5.2,5C276.4,138.9,275.6,140.3,274.1,141 M264.3,132.2h1.9v22.6h-5.5c-3,0-4.6-2.8-4.6-5.1c0-1.7,0.6-3,2-4
			c1.2,0.8,2.9,1.2,4.4,1.2c0.3,0,0.3-0.3,0.1-0.4c-0.9-0.1-1.8-0.4-2.6-0.8C253.7,142.5,255.1,132.1,264.3,132.2"/>
		<path fill="#561F53" d="M283.8,163h1.2c0.4,0,1.3,0,1.3-0.9c-0.1-0.6-0.7-0.6-1.1-0.6h-1.3C283.8,161.5,283.8,163,283.8,163z
			 M285.2,160.6c0.3,0,2,0,2,1.5c0,0.6-0.3,1.2-1,1.4v0c0.8,0.2,0.9,0.7,0.9,1.4c0.1,0.9,0.1,1.1,0.2,1.3h-1c-0.1-0.2-0.1-0.3-0.2-1
			c0-0.9-0.2-1.1-1.2-1.2h-1.1v2.2h-1v-5.6L285.2,160.6L285.2,160.6z M281,163.3c0,2.1,1.7,3.9,3.9,3.9c2.1,0,3.9-1.8,3.9-3.9
			c0-2.1-1.7-3.9-3.9-3.9C282.7,159.4,281,161.2,281,163.3 M289.8,163.3c0,2.7-2.2,4.9-4.9,4.9c-2.7,0-4.9-2.2-4.9-4.9
			c0-2.7,2.1-4.9,4.9-4.9C287.6,158.4,289.8,160.7,289.8,163.3"/>
		<path fill="#561F53" d="M66.3,106.2c-24.2-6-48.7,8.7-54.7,32.9c-6,24.2,8.7,48.7,32.9,54.7c10.6,2.6,21.2,1.3,30.3-3l11.5,4.4
			l-1.7-10.8c7-5.9,12.2-14,14.6-23.5C105.2,136.7,90.5,112.2,66.3,106.2z M23.1,158.6c-4,4.2-10.7-1.7-6.1-6l9-10.6
			c4.2-4.9,11.1,0.7,7.1,4.9L23.1,158.6z M45.8,155.5c0,2.5-2,4.3-4.5,4.3c-2,0-3.9-0.7-4.3-3.6l8.7-10.2V155.5L45.8,155.5z
			 M45.8,144.9l-11.7,13.5c-3.2,3.8-9.8-0.4-5.9-4.7l9.8-11.7c2.9-3.5,7.7-1.6,7.7,1.9V144.9L45.8,144.9z M55.4,156.5
			c-0.4,1.9-2.2,3.3-4.3,3.3c-2.4,0-4.4-1.9-4.4-4.4v-8l8.7,8.7C55.4,156.2,55.3,156.3,55.4,156.5z M66.3,155.4c0,4.3-5,5.6-7.5,3.1
			l-0.1,0l-12.1-12.1v-1.9c0-2.4,2-4.4,4.4-4.4c1.3,0,2.5,0.7,3.4,1.6l11.9,11.8V155.4L66.3,155.4z M66.3,152.3l-8.7-8.6l-0.1-0.3
			c0.4-1.9,2.2-3.4,4.3-3.4c2.5,0,4.5,2,4.5,4.4L66.3,152.3L66.3,152.3z M76,155.3c0,2.4-1.9,4.4-4.5,4.4c-2.4,0-4.4-2-4.4-4.4
			v-10.8c0-2.4,1.9-4.3,4.4-4.3c2.5,0,4.5,1.9,4.5,4.3V155.3z M85.3,159.7h-4.1c-2.5,0-4.4-1.8-4.4-4.2v-11.2c0-2.4,1.8-4.3,4.3-4.3
			h4.1C85.3,140,85.3,159.7,85.3,159.7z M86,159.7V140c5.2,0.2,9.3,4.6,9.3,9.8C95.3,155.1,91.2,159.4,86,159.7z"/>
	</g>
</g>
<g id="REGLES">
</g>
</svg>
